<?xml version="1.0" encoding="utf-8" standalone="no"?>
<!DOCTYPE svg PUBLIC "-//W3C//DTD SVG 1.1//EN"
  "http://www.w3.org/Graphics/SVG/1.1/DTD/svg11.dtd">
<!-- Created with matplotlib (http://matplotlib.org/) -->
<svg height="345pt" version="1.1" viewBox="0 0 460 345" width="460pt" xmlns="http://www.w3.org/2000/svg" xmlns:xlink="http://www.w3.org/1999/xlink">
 <defs>
  <style type="text/css">
*{stroke-linecap:butt;stroke-linejoin:round;}
  </style>
 </defs>
 <g id="figure_1">
  <g id="patch_1">
   <path d="M 0 345.6 
L 460.8 345.6 
L 460.8 0 
L 0 0 
z
" style="fill:#ffffff;"/>
  </g>
  <g id="axes_1">
   <g id="patch_2">
    <path d="M 57.6 307.584 
L 414.72 307.584 
L 414.72 41.472 
L 57.6 41.472 
z
" style="fill:#ffffff;"/>
   </g>
   <g id="matplotlib.axis_1">
    <g id="xtick_1">
     <g id="line2d_1">
      <defs>
       <path d="M 0 0 
L 0 3.5 
" id="m63b913a115" style="stroke:#000000;stroke-width:0.8;"/>
      </defs>
      <g>
       <use style="stroke:#000000;stroke-width:0.8;" x="73.832727" xlink:href="#m63b913a115" y="307.584"/>
      </g>
     </g>
     <g id="text_1">
      <!-- 0 -->
      <defs>
       <path d="M 31.78125 66.40625 
Q 24.171875 66.40625 20.328125 58.90625 
Q 16.5 51.421875 16.5 36.375 
Q 16.5 21.390625 20.328125 13.890625 
Q 24.171875 6.390625 31.78125 6.390625 
Q 39.453125 6.390625 43.28125 13.890625 
Q 47.125 21.390625 47.125 36.375 
Q 47.125 51.421875 43.28125 58.90625 
Q 39.453125 66.40625 31.78125 66.40625 
M 31.78125 74.21875 
Q 44.046875 74.21875 50.515625 64.515625 
Q 56.984375 54.828125 56.984375 36.375 
Q 56.984375 17.96875 50.515625 8.265625 
Q 44.046875 -1.421875 31.78125 -1.421875 
Q 19.53125 -1.421875 13.0625 8.265625 
Q 6.59375 17.96875 6.59375 36.375 
Q 6.59375 54.828125 13.0625 64.515625 
Q 19.53125 74.21875 31.78125 74.21875 
" id="DejaVuSans-30"/>
      </defs>
      <g transform="translate(70.651477 322.182437)scale(0.1 -0.1)">
       <use xlink:href="#DejaVuSans-30"/>
      </g>
     </g>
    </g>
    <g id="xtick_2">
     <g id="line2d_2">
      <g>
       <use style="stroke:#000000;stroke-width:0.8;" x="138.828632" xlink:href="#m63b913a115" y="307.584"/>
      </g>
     </g>
     <g id="text_2">
      <!-- 200 -->
      <defs>
       <path d="M 19.1875 8.296875 
L 53.609375 8.296875 
L 53.609375 0 
L 7.328125 0 
L 7.328125 8.296875 
Q 12.9375 14.109375 22.625 23.890625 
Q 32.328125 33.6875 34.8125 36.53125 
Q 39.546875 41.84375 41.421875 45.53125 
Q 43.3125 49.21875 43.3125 52.78125 
Q 43.3125 58.59375 39.234375 62.25 
Q 35.15625 65.921875 28.609375 65.921875 
Q 23.96875 65.921875 18.8125 64.3125 
Q 13.671875 62.703125 7.8125 59.421875 
L 7.8125 69.390625 
Q 13.765625 71.78125 18.9375 73 
Q 24.125 74.21875 28.421875 74.21875 
Q 39.75 74.21875 46.484375 68.546875 
Q 53.21875 62.890625 53.21875 53.421875 
Q 53.21875 48.921875 51.53125 44.890625 
Q 49.859375 40.875 45.40625 35.40625 
Q 44.1875 33.984375 37.640625 27.21875 
Q 31.109375 20.453125 19.1875 8.296875 
" id="DejaVuSans-32"/>
      </defs>
      <g transform="translate(129.284882 322.182437)scale(0.1 -0.1)">
       <use xlink:href="#DejaVuSans-32"/>
       <use x="63.623047" xlink:href="#DejaVuSans-30"/>
       <use x="127.246094" xlink:href="#DejaVuSans-30"/>
      </g>
     </g>
    </g>
    <g id="xtick_3">
     <g id="line2d_3">
      <g>
       <use style="stroke:#000000;stroke-width:0.8;" x="203.824537" xlink:href="#m63b913a115" y="307.584"/>
      </g>
     </g>
     <g id="text_3">
      <!-- 400 -->
      <defs>
       <path d="M 37.796875 64.3125 
L 12.890625 25.390625 
L 37.796875 25.390625 
z
M 35.203125 72.90625 
L 47.609375 72.90625 
L 47.609375 25.390625 
L 58.015625 25.390625 
L 58.015625 17.1875 
L 47.609375 17.1875 
L 47.609375 0 
L 37.796875 0 
L 37.796875 17.1875 
L 4.890625 17.1875 
L 4.890625 26.703125 
z
" id="DejaVuSans-34"/>
      </defs>
      <g transform="translate(194.280787 322.182437)scale(0.1 -0.1)">
       <use xlink:href="#DejaVuSans-34"/>
       <use x="63.623047" xlink:href="#DejaVuSans-30"/>
       <use x="127.246094" xlink:href="#DejaVuSans-30"/>
      </g>
     </g>
    </g>
    <g id="xtick_4">
     <g id="line2d_4">
      <g>
       <use style="stroke:#000000;stroke-width:0.8;" x="268.820442" xlink:href="#m63b913a115" y="307.584"/>
      </g>
     </g>
     <g id="text_4">
      <!-- 600 -->
      <defs>
       <path d="M 33.015625 40.375 
Q 26.375 40.375 22.484375 35.828125 
Q 18.609375 31.296875 18.609375 23.390625 
Q 18.609375 15.53125 22.484375 10.953125 
Q 26.375 6.390625 33.015625 6.390625 
Q 39.65625 6.390625 43.53125 10.953125 
Q 47.40625 15.53125 47.40625 23.390625 
Q 47.40625 31.296875 43.53125 35.828125 
Q 39.65625 40.375 33.015625 40.375 
M 52.59375 71.296875 
L 52.59375 62.3125 
Q 48.875 64.0625 45.09375 64.984375 
Q 41.3125 65.921875 37.59375 65.921875 
Q 27.828125 65.921875 22.671875 59.328125 
Q 17.53125 52.734375 16.796875 39.40625 
Q 19.671875 43.65625 24.015625 45.921875 
Q 28.375 48.1875 33.59375 48.1875 
Q 44.578125 48.1875 50.953125 41.515625 
Q 57.328125 34.859375 57.328125 23.390625 
Q 57.328125 12.15625 50.6875 5.359375 
Q 44.046875 -1.421875 33.015625 -1.421875 
Q 20.359375 -1.421875 13.671875 8.265625 
Q 6.984375 17.96875 6.984375 36.375 
Q 6.984375 53.65625 15.1875 63.9375 
Q 23.390625 74.21875 37.203125 74.21875 
Q 40.921875 74.21875 44.703125 73.484375 
Q 48.484375 72.75 52.59375 71.296875 
" id="DejaVuSans-36"/>
      </defs>
      <g transform="translate(259.276692 322.182437)scale(0.1 -0.1)">
       <use xlink:href="#DejaVuSans-36"/>
       <use x="63.623047" xlink:href="#DejaVuSans-30"/>
       <use x="127.246094" xlink:href="#DejaVuSans-30"/>
      </g>
     </g>
    </g>
    <g id="xtick_5">
     <g id="line2d_5">
      <g>
       <use style="stroke:#000000;stroke-width:0.8;" x="333.816347" xlink:href="#m63b913a115" y="307.584"/>
      </g>
     </g>
     <g id="text_5">
      <!-- 800 -->
      <defs>
       <path d="M 31.78125 34.625 
Q 24.75 34.625 20.71875 30.859375 
Q 16.703125 27.09375 16.703125 20.515625 
Q 16.703125 13.921875 20.71875 10.15625 
Q 24.75 6.390625 31.78125 6.390625 
Q 38.8125 6.390625 42.859375 10.171875 
Q 46.921875 13.96875 46.921875 20.515625 
Q 46.921875 27.09375 42.890625 30.859375 
Q 38.875 34.625 31.78125 34.625 
M 21.921875 38.8125 
Q 15.578125 40.375 12.03125 44.71875 
Q 8.5 49.078125 8.5 55.328125 
Q 8.5 64.0625 14.71875 69.140625 
Q 20.953125 74.21875 31.78125 74.21875 
Q 42.671875 74.21875 48.875 69.140625 
Q 55.078125 64.0625 55.078125 55.328125 
Q 55.078125 49.078125 51.53125 44.71875 
Q 48 40.375 41.703125 38.8125 
Q 48.828125 37.15625 52.796875 32.3125 
Q 56.78125 27.484375 56.78125 20.515625 
Q 56.78125 9.90625 50.3125 4.234375 
Q 43.84375 -1.421875 31.78125 -1.421875 
Q 19.734375 -1.421875 13.25 4.234375 
Q 6.78125 9.90625 6.78125 20.515625 
Q 6.78125 27.484375 10.78125 32.3125 
Q 14.796875 37.15625 21.921875 38.8125 
M 18.3125 54.390625 
Q 18.3125 48.734375 21.84375 45.5625 
Q 25.390625 42.390625 31.78125 42.390625 
Q 38.140625 42.390625 41.71875 45.5625 
Q 45.3125 48.734375 45.3125 54.390625 
Q 45.3125 60.0625 41.71875 63.234375 
Q 38.140625 66.40625 31.78125 66.40625 
Q 25.390625 66.40625 21.84375 63.234375 
Q 18.3125 60.0625 18.3125 54.390625 
" id="DejaVuSans-38"/>
      </defs>
      <g transform="translate(324.272597 322.182437)scale(0.1 -0.1)">
       <use xlink:href="#DejaVuSans-38"/>
       <use x="63.623047" xlink:href="#DejaVuSans-30"/>
       <use x="127.246094" xlink:href="#DejaVuSans-30"/>
      </g>
     </g>
    </g>
    <g id="xtick_6">
     <g id="line2d_6">
      <g>
       <use style="stroke:#000000;stroke-width:0.8;" x="398.812252" xlink:href="#m63b913a115" y="307.584"/>
      </g>
     </g>
     <g id="text_6">
      <!-- 1000 -->
      <defs>
       <path d="M 12.40625 8.296875 
L 28.515625 8.296875 
L 28.515625 63.921875 
L 10.984375 60.40625 
L 10.984375 69.390625 
L 28.421875 72.90625 
L 38.28125 72.90625 
L 38.28125 8.296875 
L 54.390625 8.296875 
L 54.390625 0 
L 12.40625 0 
z
" id="DejaVuSans-31"/>
      </defs>
      <g transform="translate(386.087252 322.182437)scale(0.1 -0.1)">
       <use xlink:href="#DejaVuSans-31"/>
       <use x="63.623047" xlink:href="#DejaVuSans-30"/>
       <use x="127.246094" xlink:href="#DejaVuSans-30"/>
       <use x="190.869141" xlink:href="#DejaVuSans-30"/>
      </g>
     </g>
    </g>
   </g>
   <g id="matplotlib.axis_2">
    <g id="ytick_1">
     <g id="line2d_7">
      <defs>
       <path d="M 0 0 
L -3.5 0 
" id="m297e2d46c7" style="stroke:#000000;stroke-width:0.8;"/>
      </defs>
      <g>
       <use style="stroke:#000000;stroke-width:0.8;" x="57.6" xlink:href="#m297e2d46c7" y="295.577951"/>
      </g>
     </g>
     <g id="text_7">
      <!-- 0.0 -->
      <defs>
       <path d="M 10.6875 12.40625 
L 21 12.40625 
L 21 0 
L 10.6875 0 
z
" id="DejaVuSans-2e"/>
      </defs>
      <g transform="translate(34.696875 299.37717)scale(0.1 -0.1)">
       <use xlink:href="#DejaVuSans-30"/>
       <use x="63.623047" xlink:href="#DejaVuSans-2e"/>
       <use x="95.410156" xlink:href="#DejaVuSans-30"/>
      </g>
     </g>
    </g>
    <g id="ytick_2">
     <g id="line2d_8">
      <g>
       <use style="stroke:#000000;stroke-width:0.8;" x="57.6" xlink:href="#m297e2d46c7" y="243.284039"/>
      </g>
     </g>
     <g id="text_8">
      <!-- 0.5 -->
      <defs>
       <path d="M 10.796875 72.90625 
L 49.515625 72.90625 
L 49.515625 64.59375 
L 19.828125 64.59375 
L 19.828125 46.734375 
Q 21.96875 47.46875 24.109375 47.828125 
Q 26.265625 48.1875 28.421875 48.1875 
Q 40.625 48.1875 47.75 41.5 
Q 54.890625 34.8125 54.890625 23.390625 
Q 54.890625 11.625 47.5625 5.09375 
Q 40.234375 -1.421875 26.90625 -1.421875 
Q 22.3125 -1.421875 17.546875 -0.640625 
Q 12.796875 0.140625 7.71875 1.703125 
L 7.71875 11.625 
Q 12.109375 9.234375 16.796875 8.0625 
Q 21.484375 6.890625 26.703125 6.890625 
Q 35.15625 6.890625 40.078125 11.328125 
Q 45.015625 15.765625 45.015625 23.390625 
Q 45.015625 31 40.078125 35.4375 
Q 35.15625 39.890625 26.703125 39.890625 
Q 22.75 39.890625 18.8125 39.015625 
Q 14.890625 38.140625 10.796875 36.28125 
z
" id="DejaVuSans-35"/>
      </defs>
      <g transform="translate(34.696875 247.083258)scale(0.1 -0.1)">
       <use xlink:href="#DejaVuSans-30"/>
       <use x="63.623047" xlink:href="#DejaVuSans-2e"/>
       <use x="95.410156" xlink:href="#DejaVuSans-35"/>
      </g>
     </g>
    </g>
    <g id="ytick_3">
     <g id="line2d_9">
      <g>
       <use style="stroke:#000000;stroke-width:0.8;" x="57.6" xlink:href="#m297e2d46c7" y="190.990126"/>
      </g>
     </g>
     <g id="text_9">
      <!-- 1.0 -->
      <g transform="translate(34.696875 194.789345)scale(0.1 -0.1)">
       <use xlink:href="#DejaVuSans-31"/>
       <use x="63.623047" xlink:href="#DejaVuSans-2e"/>
       <use x="95.410156" xlink:href="#DejaVuSans-30"/>
      </g>
     </g>
    </g>
    <g id="ytick_4">
     <g id="line2d_10">
      <g>
       <use style="stroke:#000000;stroke-width:0.8;" x="57.6" xlink:href="#m297e2d46c7" y="138.696214"/>
      </g>
     </g>
     <g id="text_10">
      <!-- 1.5 -->
      <g transform="translate(34.696875 142.495433)scale(0.1 -0.1)">
       <use xlink:href="#DejaVuSans-31"/>
       <use x="63.623047" xlink:href="#DejaVuSans-2e"/>
       <use x="95.410156" xlink:href="#DejaVuSans-35"/>
      </g>
     </g>
    </g>
    <g id="ytick_5">
     <g id="line2d_11">
      <g>
       <use style="stroke:#000000;stroke-width:0.8;" x="57.6" xlink:href="#m297e2d46c7" y="86.402302"/>
      </g>
     </g>
     <g id="text_11">
      <!-- 2.0 -->
      <g transform="translate(34.696875 90.20152)scale(0.1 -0.1)">
       <use xlink:href="#DejaVuSans-32"/>
       <use x="63.623047" xlink:href="#DejaVuSans-2e"/>
       <use x="95.410156" xlink:href="#DejaVuSans-30"/>
      </g>
     </g>
    </g>
   </g>
   <g id="line2d_12">
    <path clip-path="url(#p874b4d2eb9)" d="M 73.832727 53.743708 
L 74.157707 53.568 
L 74.482686 55.957832 
L 74.807666 57.118757 
L 75.457625 62.33246 
L 75.782604 62.179761 
L 76.107584 67.404969 
L 76.432563 64.532988 
L 77.407502 85.288441 
L 77.732482 101.651207 
L 78.057461 102.472221 
L 78.382441 138.496451 
L 78.70742 132.698102 
L 79.0324 152.615808 
L 79.682359 212.811749 
L 80.007338 196.007727 
L 80.332318 219.29588 
L 80.657297 212.235051 
L 80.982277 223.191358 
L 81.307256 224.207952 
L 81.632236 187.155937 
L 81.957215 193.347641 
L 82.282195 233.269859 
L 82.607174 218.943524 
L 82.932154 238.322183 
L 83.257133 249.920764 
L 83.582113 229.692119 
L 83.907093 234.912725 
L 84.232072 252.45043 
L 84.557052 250.895104 
L 84.882031 212.308681 
L 85.207011 246.679169 
L 85.53199 242.072284 
L 85.85697 275.03366 
L 86.181949 256.913715 
L 86.506929 192.446198 
L 86.831908 239.775117 
L 87.156888 220.695893 
L 87.481867 275.363007 
L 87.806847 251.815268 
L 88.131826 204.901039 
L 88.456806 236.591569 
L 88.781785 256.863304 
L 89.106765 234.879361 
L 89.431744 241.176594 
L 89.756724 261.250554 
L 90.081704 248.514162 
L 90.406683 219.644576 
L 90.731663 261.131533 
L 91.056642 244.265073 
L 91.381622 210.563006 
L 91.706601 223.840221 
L 92.031581 258.550201 
L 92.35656 246.51256 
L 92.68154 271.837143 
L 93.006519 245.291079 
L 93.331499 244.576326 
L 93.656478 258.045983 
L 93.981458 276.439111 
L 94.306437 257.625854 
L 94.631417 287.866743 
L 94.956396 272.836793 
L 95.281376 273.903798 
L 95.606355 262.545769 
L 95.931335 265.074808 
L 96.256314 284.616415 
L 96.581294 281.774241 
L 96.906274 261.321778 
L 97.231253 266.202683 
L 97.556233 247.439209 
L 97.881212 264.158827 
L 98.206192 270.247198 
L 98.531171 246.261968 
L 98.856151 252.087824 
L 99.18113 240.340833 
L 99.50611 279.480735 
L 99.831089 270.839793 
L 100.156069 283.149571 
L 100.806028 266.320972 
L 101.131007 269.624273 
L 101.455987 263.038692 
L 101.780966 264.136027 
L 102.105946 271.627758 
L 102.430925 261.788763 
L 103.080885 252.712945 
L 103.405864 277.617293 
L 103.730844 265.556225 
L 104.055823 265.703171 
L 104.380803 253.031206 
L 104.705782 261.05602 
L 105.355741 285.831307 
L 105.680721 266.022896 
L 106.0057 287.27578 
L 106.33068 275.912407 
L 106.980639 270.292799 
L 107.305618 266.290955 
L 107.630598 268.984091 
L 107.955577 280.816321 
L 108.280557 270.2062 
L 108.605536 271.438245 
L 108.930516 260.685152 
L 109.580475 278.000085 
L 109.905455 271.29475 
L 110.230434 278.867745 
L 110.555414 275.709611 
L 110.880393 279.992274 
L 111.205373 266.210841 
L 111.530352 275.171193 
L 111.855332 275.02226 
L 112.180311 264.830386 
L 112.505291 275.589022 
L 112.83027 281.623112 
L 113.15525 275.139503 
L 113.480229 276.171262 
L 113.805209 283.826463 
L 114.130188 277.417008 
L 114.455168 283.687989 
L 114.780147 276.970627 
L 115.105127 281.861467 
L 115.430106 281.760226 
L 116.080066 274.997159 
L 116.405045 275.601991 
L 116.730025 287.092218 
L 117.055004 277.094773 
L 117.379984 232.63794 
L 117.704963 287.546736 
L 118.029943 257.532561 
L 119.004881 286.193767 
L 119.329861 281.471668 
L 119.65484 245.994223 
L 119.97982 275.858544 
L 120.304799 280.393263 
L 120.629779 268.194244 
L 120.954758 266.306225 
L 121.279738 278.699568 
L 121.604717 284.182062 
L 121.929697 276.308168 
L 122.254676 290.929577 
L 122.579656 251.998192 
L 122.904636 273.443402 
L 123.229615 285.987164 
L 123.554595 267.274708 
L 123.879574 242.137861 
L 124.204554 275.26208 
L 124.529533 286.778727 
L 124.854513 252.124325 
L 125.179492 275.022469 
L 125.504472 278.084173 
L 125.829451 273.868552 
L 126.154431 255.973575 
L 126.47941 280.820923 
L 126.80439 274.645012 
L 127.129369 259.071153 
L 127.454349 278.687018 
L 127.779328 279.532924 
L 128.104308 281.464138 
L 128.429287 280.218079 
L 128.754267 280.694895 
L 129.079247 251.507257 
L 129.404226 287.960464 
L 129.729206 287.61111 
L 130.054185 276.163523 
L 130.379165 290.437972 
L 130.704144 289.088706 
L 131.029124 289.812746 
L 131.354103 284.579705 
L 131.679083 275.828528 
L 132.004062 285.839538 
L 132.329042 263.781997 
L 132.654021 293.362802 
L 132.979001 278.757196 
L 133.30398 283.748022 
L 133.62896 280.0567 
L 133.953939 288.39008 
L 134.278919 281.33424 
L 134.603898 293.271455 
L 134.928878 283.762246 
L 135.253857 257.223923 
L 135.578837 264.670785 
L 135.903817 289.28303 
L 136.228796 283.068202 
L 136.553776 291.105504 
L 137.203735 274.956997 
L 137.528714 269.596348 
L 137.853694 277.740184 
L 138.178673 282.078278 
L 138.503653 275.810852 
L 138.828632 290.43063 
L 139.153612 277.21599 
L 139.478591 253.505302 
L 139.803571 282.822734 
L 140.12855 267.596943 
L 140.45353 290.431969 
L 140.778509 278.228191 
L 141.103489 285.802253 
L 141.428468 273.024842 
L 141.753448 269.052806 
L 142.078428 274.015498 
L 142.403407 288.199395 
L 142.728387 268.701913 
L 143.053366 287.150787 
L 143.378346 278.036063 
L 143.703325 277.715292 
L 144.028305 286.175286 
L 144.353284 289.48776 
L 144.678264 288.289937 
L 145.003243 289.51487 
L 145.328223 291.61628 
L 145.653202 280.276857 
L 145.978182 243.665575 
L 146.303161 279.057363 
L 146.628141 268.547333 
L 146.95312 275.649055 
L 147.2781 272.870157 
L 147.603079 288.074863 
L 148.253038 281.746421 
L 148.578018 273.37427 
L 148.902998 278.211875 
L 149.227977 277.702219 
L 149.552957 287.229866 
L 149.877936 274.257096 
L 150.202916 281.99649 
L 150.527895 277.731922 
L 150.852875 266.512158 
L 151.177854 291.486957 
L 151.502834 274.326228 
L 151.827813 283.767894 
L 152.152793 250.875755 
L 152.477772 290.288453 
L 152.802752 272.512989 
L 153.127731 283.957093 
L 153.452711 288.951288 
L 153.77769 283.297249 
L 154.10267 288.14934 
L 154.427649 257.16619 
L 155.077609 284.180702 
L 155.402588 273.786764 
L 155.727568 280.645006 
L 156.052547 273.845543 
L 156.377527 289.845336 
L 156.702506 273.877128 
L 157.027486 284.54425 
L 157.352465 277.11454 
L 157.677445 288.292939 
L 158.002424 280.964208 
L 158.327404 277.05231 
L 158.652383 291.823322 
L 158.977363 273.983808 
L 159.302342 263.727926 
L 159.627322 291.626759 
L 159.952301 272.570408 
L 160.277281 291.755287 
L 160.60226 292.004112 
L 160.92724 288.098625 
L 161.252219 277.016227 
L 161.577199 258.764292 
L 161.902179 280.611852 
L 162.227158 293.288764 
L 162.552138 276.193748 
L 163.202097 272.363847 
L 163.527076 293.47012 
L 163.852056 282.281597 
L 164.177035 286.074788 
L 164.502015 285.046271 
L 164.826994 280.011309 
L 165.151974 289.77521 
L 165.476953 286.374003 
L 165.801933 274.623048 
L 166.126912 293.114866 
L 166.451892 283.092989 
L 166.776871 290.626858 
L 167.101851 288.93813 
L 167.42683 266.816299 
L 167.75181 282.105784 
L 168.401769 290.516204 
L 168.726749 263.900391 
L 169.051728 284.251299 
L 169.376708 270.483358 
L 169.701687 274.874373 
L 170.351646 263.591334 
L 170.676626 292.7429 
L 171.001605 272.783558 
L 171.326585 287.563564 
L 171.651564 283.271207 
L 171.976544 290.120255 
L 172.301523 286.516127 
L 172.626503 281.204865 
L 172.951482 290.885943 
L 173.276462 264.930895 
L 173.601441 294.065998 
L 173.926421 286.218084 
L 174.2514 287.815997 
L 174.57638 279.96916 
L 174.90136 292.069846 
L 175.226339 286.596053 
L 175.551319 275.241163 
L 175.876298 270.117405 
L 176.201278 279.215082 
L 176.526257 275.876638 
L 176.851237 289.04025 
L 177.176216 257.86902 
L 177.501196 290.542665 
L 178.151155 277.578596 
L 178.476134 273.954628 
L 178.801114 288.32237 
L 179.126093 289.554728 
L 179.451073 291.248852 
L 179.776052 271.282095 
L 180.101032 274.33219 
L 180.426011 281.449182 
L 180.750991 274.547536 
L 181.075971 287.220286 
L 181.40095 267.586903 
L 181.72593 283.168501 
L 182.050909 288.130461 
L 182.375889 277.449744 
L 182.700868 287.350299 
L 183.025848 286.289381 
L 183.350827 280.957201 
L 183.675807 279.326677 
L 184.000786 284.211556 
L 184.325766 287.35282 
L 184.650745 275.532963 
L 184.975725 278.646647 
L 185.300704 266.025093 
L 185.625684 283.212742 
L 185.950663 288.461252 
L 186.275643 263.415103 
L 186.600622 283.553803 
L 186.925602 252.449175 
L 187.250581 255.846501 
L 187.575561 267.705505 
L 187.900541 285.154645 
L 188.22552 254.513215 
L 188.5505 248.703989 
L 188.875479 275.276513 
L 189.200459 282.699111 
L 189.525438 285.416575 
L 189.850418 282.396225 
L 190.175397 266.405374 
L 190.500377 279.680707 
L 190.825356 282.483346 
L 191.150336 271.014141 
L 191.475315 284.085214 
L 191.800295 278.571448 
L 192.125274 285.681768 
L 192.450254 249.969816 
L 192.775233 292.078077 
L 193.100213 278.433078 
L 193.425192 289.367589 
L 193.750172 287.795237 
L 194.075152 271.165898 
L 194.400131 266.459237 
L 194.725111 272.563714 
L 195.05009 288.271467 
L 195.37507 285.50127 
L 195.700049 259.372993 
L 196.025029 282.044078 
L 196.350008 280.326745 
L 196.674988 269.412065 
L 196.999967 289.622532 
L 197.649926 272.947029 
L 197.974906 287.275697 
L 198.299885 291.102816 
L 198.624865 275.960308 
L 198.949844 288.229663 
L 199.274824 272.182492 
L 199.599803 280.157209 
L 199.924783 283.406125 
L 200.249762 290.727586 
L 200.574742 293.02103 
L 200.899722 276.985583 
L 201.549681 292.649555 
L 201.87466 267.023802 
L 202.19964 287.134597 
L 202.524619 286.101499 
L 202.849599 280.302377 
L 203.174578 280.078349 
L 203.499558 293.046717 
L 203.824537 277.721149 
L 204.149517 277.390338 
L 204.474496 269.713173 
L 204.799476 273.291227 
L 205.124455 287.371907 
L 205.449435 281.838458 
L 205.774414 286.089242 
L 206.099394 279.206296 
L 206.424373 289.81626 
L 206.749353 282.749209 
L 207.074333 278.703542 
L 207.399312 286.272229 
L 207.724292 288.225919 
L 208.049271 285.500642 
L 208.374251 277.479656 
L 208.69923 279.914774 
L 209.02421 292.15041 
L 209.349189 273.902229 
L 209.674169 284.17359 
L 209.999148 286.372612 
L 210.324128 293.325475 
L 210.649107 286.334626 
L 210.974087 291.559321 
L 211.299066 290.564335 
L 211.624046 280.870498 
L 211.949025 291.675989 
L 212.274005 289.150235 
L 212.598984 295.40798 
L 213.248943 254.839529 
L 213.573923 264.28517 
L 213.898903 290.697591 
L 214.223882 273.889679 
L 214.548862 271.076998 
L 214.873841 279.361923 
L 215.198821 264.464015 
L 215.5238 271.896653 
L 215.84878 289.033243 
L 216.173759 284.135102 
L 216.498739 281.208316 
L 216.823718 276.0969 
L 217.148698 283.202388 
L 217.473677 280.503499 
L 217.798657 285.467614 
L 218.123636 273.415582 
L 218.448616 284.810216 
L 218.773595 279.310466 
L 219.098575 288.620539 
L 219.423554 278.319182 
L 219.748534 291.227757 
L 220.073514 290.903806 
L 220.398493 274.425796 
L 220.723473 289.589618 
L 221.048452 285.670786 
L 221.373432 285.469005 
L 221.698411 288.066537 
L 222.023391 279.627994 
L 222.34837 281.831137 
L 222.998329 294.202851 
L 223.323309 290.193916 
L 223.648288 288.714522 
L 223.973268 272.800187 
L 224.298247 275.502841 
L 224.623227 283.270474 
L 224.948206 283.942765 
L 225.273186 289.603016 
L 225.598165 265.55769 
L 225.923145 293.470663 
L 226.248124 290.801122 
L 226.573104 279.69263 
L 227.223063 290.457718 
L 227.548043 287.489997 
L 227.873022 289.42072 
L 228.198002 270.855795 
L 228.847961 292.13925 
L 229.17294 295.392566 
L 229.822899 287.108973 
L 230.147879 275.554508 
L 230.472858 276.378137 
L 230.797838 286.128996 
L 231.122817 281.155395 
L 231.447797 289.794537 
L 231.772776 289.548045 
L 232.097756 286.985528 
L 232.422735 294.021329 
L 232.747715 288.148241 
L 233.072695 292.252885 
L 233.397674 263.463841 
L 233.722654 286.392902 
L 234.047633 277.30855 
L 234.372613 294.389196 
L 234.697592 282.988401 
L 235.022572 281.90257 
L 235.347551 293.726234 
L 235.672531 287.019143 
L 235.99751 272.795272 
L 236.32249 285.374761 
L 236.647469 291.418159 
L 236.972449 285.145682 
L 237.297428 288.305583 
L 237.622408 285.070013 
L 237.947387 279.910904 
L 238.272367 283.399013 
L 238.597346 270.965821 
L 238.922326 291.392179 
L 239.247305 283.672615 
L 239.572285 294.864565 
L 239.897265 270.112594 
L 240.222244 289.773275 
L 240.547224 280.045404 
L 240.872203 291.650156 
L 241.197183 285.209334 
L 241.522162 251.8958 
L 241.847142 281.392705 
L 242.172121 289.505363 
L 242.497101 290.482265 
L 242.82208 287.578154 
L 243.14706 288.040568 
L 243.472039 283.005867 
L 243.797019 283.406229 
L 244.121998 294.985472 
L 244.446978 249.036055 
L 244.771957 294.393118 
L 245.421916 279.596722 
L 245.746896 276.40397 
L 246.071876 289.366512 
L 246.396855 281.17192 
L 246.721835 294.482132 
L 247.046814 285.771504 
L 247.371794 294.264192 
L 247.696773 287.005306 
L 248.021753 294.956776 
L 248.346732 273.313086 
L 248.671712 275.235096 
L 248.996691 265.281159 
L 249.321671 288.632159 
L 249.64665 280.958561 
L 249.97163 292.641941 
L 250.296609 286.224788 
L 250.621589 249.962808 
L 250.946568 290.665074 
L 251.271548 293.402002 
L 251.596527 276.434928 
L 251.921507 289.973435 
L 252.246486 275.566849 
L 252.571466 290.551073 
L 252.896446 279.405327 
L 253.221425 288.703676 
L 253.546405 291.182679 
L 253.871384 285.095114 
L 254.196364 276.128172 
L 254.521343 288.876486 
L 254.846323 275.38382 
L 255.171302 294.297022 
L 255.496282 260.069443 
L 255.821261 291.613111 
L 256.146241 286.238374 
L 256.47122 284.053733 
L 256.7962 283.893399 
L 257.121179 294.475721 
L 257.446159 281.536513 
L 257.771138 292.8521 
L 258.096118 290.246179 
L 258.421097 283.97069 
L 258.746077 288.256584 
L 259.071057 294.271262 
L 259.396036 279.160277 
L 259.721016 276.533868 
L 260.045995 271.732136 
L 260.370975 262.784648 
L 260.695954 280.760157 
L 261.020934 291.046506 
L 261.345913 285.182716 
L 261.670893 284.565272 
L 261.995872 291.478443 
L 262.320852 291.006344 
L 262.645831 277.036935 
L 262.970811 286.33335 
L 263.29579 289.457503 
L 263.62077 266.589448 
L 263.945749 271.287115 
L 264.270729 294.868472 
L 264.595708 277.727529 
L 264.920688 289.460358 
L 265.570647 294.409423 
L 265.895627 281.177045 
L 266.220606 293.453909 
L 266.545586 270.84178 
L 266.870565 273.331284 
L 267.195545 290.247591 
L 267.520524 288.261834 
L 267.845504 292.301874 
L 268.170483 279.754755 
L 268.820442 286.156251 
L 269.145422 287.641158 
L 269.470401 290.406815 
L 269.795381 286.872228 
L 270.12036 292.452449 
L 270.44534 292.931796 
L 270.770319 284.200992 
L 271.095299 290.047546 
L 271.420278 293.753208 
L 271.745258 283.260329 
L 272.070238 291.09242 
L 272.395217 289.610557 
L 272.720197 284.417803 
L 273.045176 288.766491 
L 273.370156 283.76894 
L 273.695135 281.888974 
L 274.020115 277.505594 
L 274.345094 294.322981 
L 274.670074 279.670457 
L 274.995053 284.14692 
L 275.320033 282.272916 
L 275.645012 292.695323 
L 275.969992 288.997055 
L 276.294971 283.534245 
L 276.619951 282.150966 
L 276.94493 288.308533 
L 277.26991 274.520552 
L 277.594889 295.091043 
L 277.919869 286.751189 
L 278.244848 282.380014 
L 278.569828 294.632801 
L 278.894808 285.48462 
L 279.219787 294.970515 
L 279.544767 294.767691 
L 279.869746 289.944485 
L 280.194726 290.655076 
L 280.519705 293.133953 
L 280.844685 272.606386 
L 281.169664 274.23942 
L 281.494644 293.835183 
L 281.819623 294.082732 
L 282.469582 289.80189 
L 283.119541 280.968915 
L 283.444521 264.687414 
L 283.7695 291.240276 
L 284.09448 291.096938 
L 284.419459 294.654806 
L 284.744439 287.741123 
L 285.069419 262.832026 
L 285.394398 293.326991 
L 285.719378 291.153792 
L 286.044357 291.896815 
L 286.369337 272.829681 
L 286.694316 289.568575 
L 287.019296 286.764063 
L 287.344275 277.386259 
L 287.669255 289.395399 
L 287.994234 289.996141 
L 288.319214 290.97684 
L 288.644193 286.565388 
L 288.969173 291.280113 
L 289.294152 285.340864 
L 289.619132 294.761259 
L 289.944111 290.888714 
L 290.269091 267.934552 
L 290.59407 293.671169 
L 290.91905 286.034166 
L 291.244029 293.676607 
L 291.569009 266.917959 
L 291.893989 289.569433 
L 292.218968 285.756171 
L 292.543948 286.632272 
L 292.868927 280.392845 
L 293.193907 286.669924 
L 293.518886 282.42781 
L 293.843866 289.65986 
L 294.168845 285.872452 
L 294.493825 291.594672 
L 294.818804 287.905755 
L 295.143784 290.276436 
L 295.468763 287.543713 
L 295.793743 278.920248 
L 296.443702 289.477856 
L 296.768681 278.012322 
L 297.093661 295.348214 
L 297.41864 294.314049 
L 298.0686 286.24718 
L 298.393579 295.129977 
L 298.718559 278.50744 
L 299.043538 291.385423 
L 299.368518 289.083183 
L 299.693497 288.852107 
L 300.018477 283.697193 
L 300.343456 294.257635 
L 300.668436 243.152049 
L 300.993415 286.399334 
L 301.318395 294.530724 
L 301.643374 286.669746 
L 301.968354 288.642241 
L 302.293333 294.48117 
L 302.618313 277.658187 
L 302.943292 290.795631 
L 303.268272 281.386848 
L 303.593251 294.1529 
L 303.918231 276.940505 
L 304.24321 283.480905 
L 304.89317 290.451108 
L 305.543129 291.372349 
L 305.868108 286.550401 
L 306.193088 291.195366 
L 306.518067 288.103321 
L 306.843047 290.810953 
L 307.168026 292.224698 
L 307.493006 289.085244 
L 307.817985 272.705849 
L 308.142965 291.83901 
L 308.467944 286.731212 
L 308.792924 294.552032 
L 309.117903 266.948812 
L 309.442883 289.437328 
L 309.767862 290.038217 
L 310.092842 270.064693 
L 310.742801 292.75681 
L 311.067781 283.034943 
L 311.39276 283.236797 
L 311.71774 291.814233 
L 312.042719 291.084367 
L 312.367699 287.860928 
L 312.692678 292.223286 
L 313.017658 270.926915 
L 313.342637 294.245178 
L 313.667617 289.521019 
L 313.992596 289.4563 
L 314.317576 273.220944 
L 314.642555 291.775975 
L 314.967535 294.967417 
L 315.292514 288.337734 
L 315.617494 251.509662 
L 315.942473 286.27955 
L 316.267453 289.609417 
L 316.592432 278.747888 
L 316.917412 292.415195 
L 317.242391 290.350275 
L 317.567371 294.183743 
L 317.892351 278.500328 
L 318.21733 289.786798 
L 318.54231 291.156742 
L 318.867289 276.762602 
L 319.517248 288.094797 
L 319.842228 291.500909 
L 320.167207 293.625129 
L 320.492187 291.796965 
L 320.817166 276.145324 
L 321.142146 281.0324 
L 321.467125 295.308239 
L 321.792105 272.957906 
L 322.117084 295.317941 
L 322.442064 293.332628 
L 322.767043 295.292464 
L 323.092023 279.832882 
L 323.417002 293.255871 
L 323.741982 293.73251 
L 324.066962 286.659298 
L 324.716921 295.120088 
L 325.0419 276.4343 
L 325.36688 295.080583 
L 325.691859 294.118407 
L 326.016839 287.40138 
L 326.341818 292.892481 
L 326.666798 292.097028 
L 326.991777 261.697039 
L 327.316757 266.210945 
L 327.641736 292.799795 
L 327.966716 292.504492 
L 328.291695 293.7854 
L 328.616675 289.710909 
L 328.941654 290.47646 
L 329.266634 282.469959 
L 329.591613 292.443276 
L 329.916593 290.114294 
L 330.241572 283.38186 
L 330.566552 290.092958 
L 330.891532 270.282026 
L 331.541491 290.446705 
L 331.86647 282.612408 
L 332.19145 294.18915 
L 332.516429 291.302265 
L 332.841409 291.458728 
L 333.166388 290.346625 
L 333.491368 294.31316 
L 333.816347 282.085285 
L 334.141327 281.350347 
L 334.466306 276.116772 
L 334.791286 290.03534 
L 335.116265 281.000291 
L 335.441245 282.754438 
L 336.091204 294.916151 
L 336.416183 286.640702 
L 336.741163 292.528923 
L 337.066143 295.488 
L 337.391122 287.624748 
L 337.716102 275.767344 
L 338.041081 291.94092 
L 338.366061 294.276534 
L 338.69104 294.007461 
L 339.01602 289.068729 
L 339.340999 293.067446 
L 339.990958 280.554329 
L 340.315938 288.068085 
L 340.640917 292.981287 
L 340.965897 294.821459 
L 341.290876 293.952531 
L 341.615856 292.141792 
L 341.940835 293.390643 
L 342.265815 288.655524 
L 342.590794 286.527266 
L 342.915774 294.066197 
L 343.565733 283.254682 
L 343.890713 270.501765 
L 344.215692 295.272226 
L 344.540672 263.267007 
L 344.865651 290.743358 
L 345.190631 280.159405 
L 345.51561 292.221697 
L 345.84059 292.461307 
L 346.165569 289.199328 
L 346.490549 289.395336 
L 346.815528 288.732459 
L 347.140508 281.025392 
L 347.465487 293.478591 
L 347.790467 292.635164 
L 348.115446 295.123598 
L 348.440426 286.14346 
L 348.765405 290.230093 
L 349.090385 282.163203 
L 349.415364 294.565279 
L 349.740344 282.395702 
L 350.390303 294.949766 
L 350.715283 286.673333 
L 351.040262 283.526819 
L 351.365242 292.640173 
L 351.690221 271.909204 
L 352.015201 288.370721 
L 352.34018 293.259961 
L 352.990139 285.556335 
L 353.315119 292.387249 
L 353.640098 286.332795 
L 353.965078 287.619539 
L 354.290057 288.397485 
L 354.940016 273.644734 
L 355.264996 293.118621 
L 355.914955 295.067686 
L 356.239934 265.035587 
L 356.564914 248.780443 
L 356.889894 292.695856 
L 357.214873 294.628447 
L 357.539853 270.749011 
L 357.864832 294.308391 
L 358.189812 275.010128 
L 358.514791 292.921494 
L 358.839771 291.686123 
L 359.48973 287.131982 
L 359.814709 282.843651 
L 360.139689 287.938731 
L 360.464668 282.717832 
L 360.789648 288.140021 
L 361.114627 283.530061 
L 361.439607 286.783946 
L 361.764586 266.945047 
L 362.089566 267.734058 
L 362.414545 292.356165 
L 362.739525 283.246838 
L 363.064505 288.346195 
L 363.389484 280.717486 
L 363.714464 294.539386 
L 364.039443 283.765279 
L 364.364423 293.719227 
L 364.689402 286.904943 
L 365.014382 288.482159 
L 365.339361 295.297681 
L 365.664341 262.736328 
L 365.98932 288.616481 
L 366.3143 287.360277 
L 366.639279 294.738071 
L 367.289238 291.360426 
L 367.614218 293.610999 
L 367.939197 291.843225 
L 368.264177 283.263258 
L 368.589156 292.260635 
L 368.914136 292.82795 
L 369.239115 286.844178 
L 369.564095 287.60588 
L 369.889075 295.227325 
L 370.214054 284.312169 
L 370.864013 290.954322 
L 371.188993 293.160215 
L 371.513972 286.535602 
L 372.163931 290.690594 
L 372.488911 286.372832 
L 372.81389 292.608703 
L 373.13887 277.367747 
L 373.463849 291.117866 
L 373.788829 286.303553 
L 374.113808 291.818155 
L 374.438788 292.664793 
L 374.763767 288.39213 
L 375.088747 293.38852 
L 375.413726 280.172374 
L 375.738706 290.059647 
L 376.063686 291.858505 
L 376.713645 281.157277 
L 377.038624 287.174675 
L 377.363604 295.447679 
L 377.688583 294.116504 
L 378.013563 284.355991 
L 378.338542 294.591337 
L 378.663522 293.790326 
L 378.988501 286.420388 
L 379.313481 293.352458 
L 379.63846 290.547884 
L 379.96344 285.099193 
L 380.288419 269.546565 
L 380.613399 289.904344 
L 380.938378 276.922935 
L 381.263358 277.404875 
L 381.588337 281.672895 
L 381.913317 266.453798 
L 382.238296 288.971484 
L 382.563276 294.653734 
L 382.888256 278.071309 
L 383.213235 281.193988 
L 383.538215 278.14337 
L 383.863194 287.59357 
L 384.188174 255.59183 
L 384.513153 292.903777 
L 384.838133 269.090875 
L 385.163112 290.983042 
L 385.488092 294.482362 
L 385.813071 288.645075 
L 386.138051 288.758532 
L 386.46303 270.651221 
L 386.78801 292.722944 
L 387.112989 288.584007 
L 387.437969 274.611021 
L 388.087928 291.166834 
L 388.412907 288.435314 
L 388.737887 290.64014 
L 389.062867 289.277779 
L 389.387846 283.022497 
L 389.712826 291.274947 
L 390.037805 288.019337 
L 390.362785 281.967624 
L 390.687764 286.432698 
L 391.012744 270.079963 
L 391.337723 281.71494 
L 391.662703 286.751931 
L 391.987682 287.848859 
L 392.312662 294.394383 
L 392.637641 284.905078 
L 392.962621 290.95062 
L 393.2876 289.637917 
L 393.61258 287.597388 
L 393.937559 280.914111 
L 394.262539 277.273618 
L 394.912498 293.426852 
L 395.237477 259.851796 
L 395.562457 280.682972 
L 396.212416 294.934878 
L 396.537396 274.730774 
L 396.862375 286.181509 
L 397.187355 283.057324 
L 397.512334 293.726098 
L 397.837314 295.100744 
L 398.162293 285.08204 
L 398.487273 281.164912 
L 398.487273 281.164912 
" style="fill:none;stroke:#1f77b4;stroke-linecap:square;stroke-width:1.5;"/>
   </g>
   <g id="patch_3">
    <path d="M 57.6 307.584 
L 57.6 41.472 
" style="fill:none;stroke:#000000;stroke-linecap:square;stroke-linejoin:miter;stroke-width:0.8;"/>
   </g>
   <g id="patch_4">
    <path d="M 414.72 307.584 
L 414.72 41.472 
" style="fill:none;stroke:#000000;stroke-linecap:square;stroke-linejoin:miter;stroke-width:0.8;"/>
   </g>
   <g id="patch_5">
    <path d="M 57.6 307.584 
L 414.72 307.584 
" style="fill:none;stroke:#000000;stroke-linecap:square;stroke-linejoin:miter;stroke-width:0.8;"/>
   </g>
   <g id="patch_6">
    <path d="M 57.6 41.472 
L 414.72 41.472 
" style="fill:none;stroke:#000000;stroke-linecap:square;stroke-linejoin:miter;stroke-width:0.8;"/>
   </g>
  </g>
 </g>
 <defs>
  <clipPath id="p874b4d2eb9">
   <rect height="266.112" width="357.12" x="57.6" y="41.472"/>
  </clipPath>
 </defs>
</svg>
