<?xml version="1.0" encoding="utf-8" standalone="no"?>
<!DOCTYPE svg PUBLIC "-//W3C//DTD SVG 1.1//EN"
  "http://www.w3.org/Graphics/SVG/1.1/DTD/svg11.dtd">
<!-- Created with matplotlib (http://matplotlib.org/) -->
<svg height="345pt" version="1.1" viewBox="0 0 460 345" width="460pt" xmlns="http://www.w3.org/2000/svg" xmlns:xlink="http://www.w3.org/1999/xlink">
 <defs>
  <style type="text/css">
*{stroke-linecap:butt;stroke-linejoin:round;}
  </style>
 </defs>
 <g id="figure_1">
  <g id="patch_1">
   <path d="M 0 345.6 
L 460.8 345.6 
L 460.8 0 
L 0 0 
z
" style="fill:#ffffff;"/>
  </g>
  <g id="axes_1">
   <g id="patch_2">
    <path d="M 57.6 307.584 
L 414.72 307.584 
L 414.72 41.472 
L 57.6 41.472 
z
" style="fill:#ffffff;"/>
   </g>
   <g id="matplotlib.axis_1">
    <g id="xtick_1">
     <g id="line2d_1">
      <defs>
       <path d="M 0 0 
L 0 3.5 
" id="mbd7cc3facb" style="stroke:#000000;stroke-width:0.8;"/>
      </defs>
      <g>
       <use style="stroke:#000000;stroke-width:0.8;" x="73.832727" xlink:href="#mbd7cc3facb" y="307.584"/>
      </g>
     </g>
     <g id="text_1">
      <!-- 0 -->
      <defs>
       <path d="M 31.78125 66.40625 
Q 24.171875 66.40625 20.328125 58.90625 
Q 16.5 51.421875 16.5 36.375 
Q 16.5 21.390625 20.328125 13.890625 
Q 24.171875 6.390625 31.78125 6.390625 
Q 39.453125 6.390625 43.28125 13.890625 
Q 47.125 21.390625 47.125 36.375 
Q 47.125 51.421875 43.28125 58.90625 
Q 39.453125 66.40625 31.78125 66.40625 
M 31.78125 74.21875 
Q 44.046875 74.21875 50.515625 64.515625 
Q 56.984375 54.828125 56.984375 36.375 
Q 56.984375 17.96875 50.515625 8.265625 
Q 44.046875 -1.421875 31.78125 -1.421875 
Q 19.53125 -1.421875 13.0625 8.265625 
Q 6.59375 17.96875 6.59375 36.375 
Q 6.59375 54.828125 13.0625 64.515625 
Q 19.53125 74.21875 31.78125 74.21875 
" id="DejaVuSans-30"/>
      </defs>
      <g transform="translate(70.651477 322.182437)scale(0.1 -0.1)">
       <use xlink:href="#DejaVuSans-30"/>
      </g>
     </g>
    </g>
    <g id="xtick_2">
     <g id="line2d_2">
      <g>
       <use style="stroke:#000000;stroke-width:0.8;" x="138.828632" xlink:href="#mbd7cc3facb" y="307.584"/>
      </g>
     </g>
     <g id="text_2">
      <!-- 200 -->
      <defs>
       <path d="M 19.1875 8.296875 
L 53.609375 8.296875 
L 53.609375 0 
L 7.328125 0 
L 7.328125 8.296875 
Q 12.9375 14.109375 22.625 23.890625 
Q 32.328125 33.6875 34.8125 36.53125 
Q 39.546875 41.84375 41.421875 45.53125 
Q 43.3125 49.21875 43.3125 52.78125 
Q 43.3125 58.59375 39.234375 62.25 
Q 35.15625 65.921875 28.609375 65.921875 
Q 23.96875 65.921875 18.8125 64.3125 
Q 13.671875 62.703125 7.8125 59.421875 
L 7.8125 69.390625 
Q 13.765625 71.78125 18.9375 73 
Q 24.125 74.21875 28.421875 74.21875 
Q 39.75 74.21875 46.484375 68.546875 
Q 53.21875 62.890625 53.21875 53.421875 
Q 53.21875 48.921875 51.53125 44.890625 
Q 49.859375 40.875 45.40625 35.40625 
Q 44.1875 33.984375 37.640625 27.21875 
Q 31.109375 20.453125 19.1875 8.296875 
" id="DejaVuSans-32"/>
      </defs>
      <g transform="translate(129.284882 322.182437)scale(0.1 -0.1)">
       <use xlink:href="#DejaVuSans-32"/>
       <use x="63.623047" xlink:href="#DejaVuSans-30"/>
       <use x="127.246094" xlink:href="#DejaVuSans-30"/>
      </g>
     </g>
    </g>
    <g id="xtick_3">
     <g id="line2d_3">
      <g>
       <use style="stroke:#000000;stroke-width:0.8;" x="203.824537" xlink:href="#mbd7cc3facb" y="307.584"/>
      </g>
     </g>
     <g id="text_3">
      <!-- 400 -->
      <defs>
       <path d="M 37.796875 64.3125 
L 12.890625 25.390625 
L 37.796875 25.390625 
z
M 35.203125 72.90625 
L 47.609375 72.90625 
L 47.609375 25.390625 
L 58.015625 25.390625 
L 58.015625 17.1875 
L 47.609375 17.1875 
L 47.609375 0 
L 37.796875 0 
L 37.796875 17.1875 
L 4.890625 17.1875 
L 4.890625 26.703125 
z
" id="DejaVuSans-34"/>
      </defs>
      <g transform="translate(194.280787 322.182437)scale(0.1 -0.1)">
       <use xlink:href="#DejaVuSans-34"/>
       <use x="63.623047" xlink:href="#DejaVuSans-30"/>
       <use x="127.246094" xlink:href="#DejaVuSans-30"/>
      </g>
     </g>
    </g>
    <g id="xtick_4">
     <g id="line2d_4">
      <g>
       <use style="stroke:#000000;stroke-width:0.8;" x="268.820442" xlink:href="#mbd7cc3facb" y="307.584"/>
      </g>
     </g>
     <g id="text_4">
      <!-- 600 -->
      <defs>
       <path d="M 33.015625 40.375 
Q 26.375 40.375 22.484375 35.828125 
Q 18.609375 31.296875 18.609375 23.390625 
Q 18.609375 15.53125 22.484375 10.953125 
Q 26.375 6.390625 33.015625 6.390625 
Q 39.65625 6.390625 43.53125 10.953125 
Q 47.40625 15.53125 47.40625 23.390625 
Q 47.40625 31.296875 43.53125 35.828125 
Q 39.65625 40.375 33.015625 40.375 
M 52.59375 71.296875 
L 52.59375 62.3125 
Q 48.875 64.0625 45.09375 64.984375 
Q 41.3125 65.921875 37.59375 65.921875 
Q 27.828125 65.921875 22.671875 59.328125 
Q 17.53125 52.734375 16.796875 39.40625 
Q 19.671875 43.65625 24.015625 45.921875 
Q 28.375 48.1875 33.59375 48.1875 
Q 44.578125 48.1875 50.953125 41.515625 
Q 57.328125 34.859375 57.328125 23.390625 
Q 57.328125 12.15625 50.6875 5.359375 
Q 44.046875 -1.421875 33.015625 -1.421875 
Q 20.359375 -1.421875 13.671875 8.265625 
Q 6.984375 17.96875 6.984375 36.375 
Q 6.984375 53.65625 15.1875 63.9375 
Q 23.390625 74.21875 37.203125 74.21875 
Q 40.921875 74.21875 44.703125 73.484375 
Q 48.484375 72.75 52.59375 71.296875 
" id="DejaVuSans-36"/>
      </defs>
      <g transform="translate(259.276692 322.182437)scale(0.1 -0.1)">
       <use xlink:href="#DejaVuSans-36"/>
       <use x="63.623047" xlink:href="#DejaVuSans-30"/>
       <use x="127.246094" xlink:href="#DejaVuSans-30"/>
      </g>
     </g>
    </g>
    <g id="xtick_5">
     <g id="line2d_5">
      <g>
       <use style="stroke:#000000;stroke-width:0.8;" x="333.816347" xlink:href="#mbd7cc3facb" y="307.584"/>
      </g>
     </g>
     <g id="text_5">
      <!-- 800 -->
      <defs>
       <path d="M 31.78125 34.625 
Q 24.75 34.625 20.71875 30.859375 
Q 16.703125 27.09375 16.703125 20.515625 
Q 16.703125 13.921875 20.71875 10.15625 
Q 24.75 6.390625 31.78125 6.390625 
Q 38.8125 6.390625 42.859375 10.171875 
Q 46.921875 13.96875 46.921875 20.515625 
Q 46.921875 27.09375 42.890625 30.859375 
Q 38.875 34.625 31.78125 34.625 
M 21.921875 38.8125 
Q 15.578125 40.375 12.03125 44.71875 
Q 8.5 49.078125 8.5 55.328125 
Q 8.5 64.0625 14.71875 69.140625 
Q 20.953125 74.21875 31.78125 74.21875 
Q 42.671875 74.21875 48.875 69.140625 
Q 55.078125 64.0625 55.078125 55.328125 
Q 55.078125 49.078125 51.53125 44.71875 
Q 48 40.375 41.703125 38.8125 
Q 48.828125 37.15625 52.796875 32.3125 
Q 56.78125 27.484375 56.78125 20.515625 
Q 56.78125 9.90625 50.3125 4.234375 
Q 43.84375 -1.421875 31.78125 -1.421875 
Q 19.734375 -1.421875 13.25 4.234375 
Q 6.78125 9.90625 6.78125 20.515625 
Q 6.78125 27.484375 10.78125 32.3125 
Q 14.796875 37.15625 21.921875 38.8125 
M 18.3125 54.390625 
Q 18.3125 48.734375 21.84375 45.5625 
Q 25.390625 42.390625 31.78125 42.390625 
Q 38.140625 42.390625 41.71875 45.5625 
Q 45.3125 48.734375 45.3125 54.390625 
Q 45.3125 60.0625 41.71875 63.234375 
Q 38.140625 66.40625 31.78125 66.40625 
Q 25.390625 66.40625 21.84375 63.234375 
Q 18.3125 60.0625 18.3125 54.390625 
" id="DejaVuSans-38"/>
      </defs>
      <g transform="translate(324.272597 322.182437)scale(0.1 -0.1)">
       <use xlink:href="#DejaVuSans-38"/>
       <use x="63.623047" xlink:href="#DejaVuSans-30"/>
       <use x="127.246094" xlink:href="#DejaVuSans-30"/>
      </g>
     </g>
    </g>
    <g id="xtick_6">
     <g id="line2d_6">
      <g>
       <use style="stroke:#000000;stroke-width:0.8;" x="398.812252" xlink:href="#mbd7cc3facb" y="307.584"/>
      </g>
     </g>
     <g id="text_6">
      <!-- 1000 -->
      <defs>
       <path d="M 12.40625 8.296875 
L 28.515625 8.296875 
L 28.515625 63.921875 
L 10.984375 60.40625 
L 10.984375 69.390625 
L 28.421875 72.90625 
L 38.28125 72.90625 
L 38.28125 8.296875 
L 54.390625 8.296875 
L 54.390625 0 
L 12.40625 0 
z
" id="DejaVuSans-31"/>
      </defs>
      <g transform="translate(386.087252 322.182437)scale(0.1 -0.1)">
       <use xlink:href="#DejaVuSans-31"/>
       <use x="63.623047" xlink:href="#DejaVuSans-30"/>
       <use x="127.246094" xlink:href="#DejaVuSans-30"/>
       <use x="190.869141" xlink:href="#DejaVuSans-30"/>
      </g>
     </g>
    </g>
   </g>
   <g id="matplotlib.axis_2">
    <g id="ytick_1">
     <g id="line2d_7">
      <defs>
       <path d="M 0 0 
L -3.5 0 
" id="m543a78533d" style="stroke:#000000;stroke-width:0.8;"/>
      </defs>
      <g>
       <use style="stroke:#000000;stroke-width:0.8;" x="57.6" xlink:href="#m543a78533d" y="307.385705"/>
      </g>
     </g>
     <g id="text_7">
      <!-- 0.0 -->
      <defs>
       <path d="M 10.6875 12.40625 
L 21 12.40625 
L 21 0 
L 10.6875 0 
z
" id="DejaVuSans-2e"/>
      </defs>
      <g transform="translate(34.696875 311.184924)scale(0.1 -0.1)">
       <use xlink:href="#DejaVuSans-30"/>
       <use x="63.623047" xlink:href="#DejaVuSans-2e"/>
       <use x="95.410156" xlink:href="#DejaVuSans-30"/>
      </g>
     </g>
    </g>
    <g id="ytick_2">
     <g id="line2d_8">
      <g>
       <use style="stroke:#000000;stroke-width:0.8;" x="57.6" xlink:href="#m543a78533d" y="256.622164"/>
      </g>
     </g>
     <g id="text_8">
      <!-- 0.2 -->
      <g transform="translate(34.696875 260.421383)scale(0.1 -0.1)">
       <use xlink:href="#DejaVuSans-30"/>
       <use x="63.623047" xlink:href="#DejaVuSans-2e"/>
       <use x="95.410156" xlink:href="#DejaVuSans-32"/>
      </g>
     </g>
    </g>
    <g id="ytick_3">
     <g id="line2d_9">
      <g>
       <use style="stroke:#000000;stroke-width:0.8;" x="57.6" xlink:href="#m543a78533d" y="205.858623"/>
      </g>
     </g>
     <g id="text_9">
      <!-- 0.4 -->
      <g transform="translate(34.696875 209.657842)scale(0.1 -0.1)">
       <use xlink:href="#DejaVuSans-30"/>
       <use x="63.623047" xlink:href="#DejaVuSans-2e"/>
       <use x="95.410156" xlink:href="#DejaVuSans-34"/>
      </g>
     </g>
    </g>
    <g id="ytick_4">
     <g id="line2d_10">
      <g>
       <use style="stroke:#000000;stroke-width:0.8;" x="57.6" xlink:href="#m543a78533d" y="155.095082"/>
      </g>
     </g>
     <g id="text_10">
      <!-- 0.6 -->
      <g transform="translate(34.696875 158.894301)scale(0.1 -0.1)">
       <use xlink:href="#DejaVuSans-30"/>
       <use x="63.623047" xlink:href="#DejaVuSans-2e"/>
       <use x="95.410156" xlink:href="#DejaVuSans-36"/>
      </g>
     </g>
    </g>
    <g id="ytick_5">
     <g id="line2d_11">
      <g>
       <use style="stroke:#000000;stroke-width:0.8;" x="57.6" xlink:href="#m543a78533d" y="104.331541"/>
      </g>
     </g>
     <g id="text_11">
      <!-- 0.8 -->
      <g transform="translate(34.696875 108.13076)scale(0.1 -0.1)">
       <use xlink:href="#DejaVuSans-30"/>
       <use x="63.623047" xlink:href="#DejaVuSans-2e"/>
       <use x="95.410156" xlink:href="#DejaVuSans-38"/>
      </g>
     </g>
    </g>
    <g id="ytick_6">
     <g id="line2d_12">
      <g>
       <use style="stroke:#000000;stroke-width:0.8;" x="57.6" xlink:href="#m543a78533d" y="53.568"/>
      </g>
     </g>
     <g id="text_12">
      <!-- 1.0 -->
      <g transform="translate(34.696875 57.367219)scale(0.1 -0.1)">
       <use xlink:href="#DejaVuSans-31"/>
       <use x="63.623047" xlink:href="#DejaVuSans-2e"/>
       <use x="95.410156" xlink:href="#DejaVuSans-30"/>
      </g>
     </g>
    </g>
   </g>
   <g id="line2d_13">
    <path clip-path="url(#p8cf1a9a298)" d="M 73.832727 287.556197 
L 74.157707 291.522098 
L 74.482686 263.760787 
L 74.807666 247.89718 
L 75.132645 255.828984 
L 75.457625 255.828984 
L 75.782604 295.488 
L 76.107584 259.794885 
L 76.432563 279.624393 
L 76.757543 275.658492 
L 77.082523 220.135869 
L 77.407502 144.783738 
L 77.732482 132.886033 
L 78.057461 184.442754 
L 78.382441 160.647344 
L 78.70742 180.476852 
L 79.0324 164.613246 
L 79.682359 101.15882 
L 80.007338 117.022426 
L 80.332318 120.988328 
L 80.657297 128.920131 
L 80.982277 124.95423 
L 81.632236 124.95423 
L 81.957215 117.022426 
L 82.282195 105.124721 
L 82.607174 105.124721 
L 82.932154 101.15882 
L 83.257133 89.261115 
L 83.582113 101.15882 
L 83.907093 101.15882 
L 84.232072 77.36341 
L 84.557052 89.261115 
L 84.882031 113.056525 
L 85.207011 89.261115 
L 85.53199 97.192918 
L 85.85697 77.36341 
L 86.181949 77.36341 
L 86.506929 124.95423 
L 86.831908 97.192918 
L 87.156888 101.15882 
L 87.481867 69.431607 
L 87.806847 77.36341 
L 88.456806 105.124721 
L 88.781785 85.295213 
L 89.106765 89.261115 
L 89.756724 81.329311 
L 90.081704 89.261115 
L 90.406683 93.227016 
L 90.731663 81.329311 
L 91.056642 85.295213 
L 91.381622 101.15882 
L 91.706601 105.124721 
L 92.031581 97.192918 
L 92.35656 93.227016 
L 92.68154 73.397508 
L 93.006519 81.329311 
L 93.331499 93.227016 
L 93.656478 85.295213 
L 93.981458 69.431607 
L 94.306437 77.36341 
L 94.631417 57.533902 
L 94.956396 73.397508 
L 95.606355 81.329311 
L 95.931335 77.36341 
L 96.581294 57.533902 
L 96.906274 69.431607 
L 97.881212 81.329311 
L 98.206192 69.431607 
L 98.531171 73.397508 
L 98.856151 85.295213 
L 99.50611 69.431607 
L 99.831089 73.397508 
L 100.156069 65.465705 
L 100.481048 65.465705 
L 100.806028 61.499803 
L 101.131007 73.397508 
L 101.780966 81.329311 
L 102.105946 73.397508 
L 102.430925 81.329311 
L 102.755905 81.329311 
L 103.080885 77.36341 
L 103.405864 77.36341 
L 103.730844 65.465705 
L 104.055823 81.329311 
L 104.380803 77.36341 
L 104.705782 77.36341 
L 105.030762 69.431607 
L 105.355741 57.533902 
L 105.680721 77.36341 
L 106.0057 57.533902 
L 106.33068 73.397508 
L 106.655659 81.329311 
L 106.980639 65.465705 
L 107.630598 73.397508 
L 107.955577 65.465705 
L 108.280557 73.397508 
L 108.605536 77.36341 
L 108.930516 77.36341 
L 109.255495 65.465705 
L 109.580475 69.431607 
L 109.905455 77.36341 
L 110.230434 57.533902 
L 110.555414 69.431607 
L 110.880393 65.465705 
L 111.205373 77.36341 
L 111.530352 69.431607 
L 111.855332 69.431607 
L 112.180311 73.397508 
L 112.505291 65.465705 
L 112.83027 65.465705 
L 113.15525 81.329311 
L 113.480229 65.465705 
L 113.805209 61.499803 
L 114.130188 69.431607 
L 114.455168 61.499803 
L 114.780147 69.431607 
L 115.105127 69.431607 
L 115.430106 61.499803 
L 116.080066 69.431607 
L 116.405045 65.465705 
L 116.730025 65.465705 
L 117.055004 69.431607 
L 117.379984 97.192918 
L 117.704963 57.533902 
L 118.029943 77.36341 
L 118.354922 77.36341 
L 118.679902 81.329311 
L 119.004881 61.499803 
L 119.329861 65.465705 
L 119.65484 77.36341 
L 119.97982 65.465705 
L 120.304799 69.431607 
L 120.629779 77.36341 
L 120.954758 81.329311 
L 121.279738 65.465705 
L 121.604717 65.465705 
L 121.929697 69.431607 
L 122.254676 53.568 
L 122.579656 85.295213 
L 123.229615 65.465705 
L 123.554595 77.36341 
L 123.879574 77.36341 
L 124.529533 61.499803 
L 124.854513 77.36341 
L 125.504472 69.431607 
L 125.829451 69.431607 
L 126.154431 77.36341 
L 126.47941 65.465705 
L 126.80439 73.397508 
L 127.129369 89.261115 
L 127.454349 61.499803 
L 127.779328 61.499803 
L 128.104308 69.431607 
L 128.429287 65.465705 
L 129.079247 81.329311 
L 129.404226 61.499803 
L 129.729206 61.499803 
L 130.054185 69.431607 
L 130.379165 57.533902 
L 130.704144 53.568 
L 131.354103 61.499803 
L 131.679083 69.431607 
L 132.004062 61.499803 
L 132.329042 81.329311 
L 132.654021 53.568 
L 132.979001 57.533902 
L 133.30398 65.465705 
L 133.62896 65.465705 
L 133.953939 57.533902 
L 134.278919 69.431607 
L 134.603898 53.568 
L 134.928878 61.499803 
L 135.253857 73.397508 
L 135.578837 73.397508 
L 135.903817 57.533902 
L 136.228796 65.465705 
L 136.553776 57.533902 
L 136.878755 61.499803 
L 137.203735 73.397508 
L 137.528714 69.431607 
L 137.853694 61.499803 
L 138.178673 65.465705 
L 138.503653 65.465705 
L 138.828632 57.533902 
L 139.153612 69.431607 
L 139.478591 73.397508 
L 139.803571 65.465705 
L 140.12855 77.36341 
L 140.45353 57.533902 
L 140.778509 69.431607 
L 141.103489 57.533902 
L 141.428468 73.397508 
L 141.753448 77.36341 
L 142.078428 77.36341 
L 142.403407 57.533902 
L 142.728387 65.465705 
L 143.053366 61.499803 
L 143.378346 77.36341 
L 143.703325 69.431607 
L 144.028305 65.465705 
L 144.353284 57.533902 
L 144.678264 57.533902 
L 145.003243 61.499803 
L 145.328223 57.533902 
L 145.653202 61.499803 
L 145.978182 85.295213 
L 146.303161 61.499803 
L 146.628141 77.36341 
L 146.95312 69.431607 
L 147.2781 77.36341 
L 147.603079 61.499803 
L 148.253038 61.499803 
L 148.578018 65.465705 
L 148.902998 61.499803 
L 149.227977 69.431607 
L 149.552957 57.533902 
L 149.877936 73.397508 
L 150.202916 65.465705 
L 150.527895 73.397508 
L 150.852875 69.431607 
L 151.177854 57.533902 
L 151.502834 61.499803 
L 151.827813 61.499803 
L 152.152793 85.295213 
L 152.477772 57.533902 
L 152.802752 65.465705 
L 153.127731 61.499803 
L 154.10267 61.499803 
L 154.427649 85.295213 
L 154.752629 69.431607 
L 155.077609 69.431607 
L 155.402588 65.465705 
L 155.727568 69.431607 
L 156.052547 69.431607 
L 156.377527 57.533902 
L 156.702506 73.397508 
L 157.027486 61.499803 
L 157.352465 69.431607 
L 157.677445 57.533902 
L 158.002424 65.465705 
L 158.327404 69.431607 
L 158.652383 53.568 
L 158.977363 69.431607 
L 159.302342 69.431607 
L 159.627322 53.568 
L 159.952301 69.431607 
L 160.277281 57.533902 
L 160.92724 57.533902 
L 161.252219 65.465705 
L 161.577199 69.431607 
L 161.902179 65.465705 
L 162.227158 53.568 
L 162.552138 73.397508 
L 162.877117 65.465705 
L 163.202097 65.465705 
L 163.527076 53.568 
L 163.852056 65.465705 
L 164.177035 61.499803 
L 165.801933 61.499803 
L 166.126912 57.533902 
L 166.451892 61.499803 
L 166.776871 57.533902 
L 167.75181 69.431607 
L 168.07679 57.533902 
L 168.401769 57.533902 
L 168.726749 69.431607 
L 169.051728 65.465705 
L 169.376708 69.431607 
L 169.701687 81.329311 
L 170.351646 73.397508 
L 170.676626 57.533902 
L 171.001605 69.431607 
L 171.326585 57.533902 
L 171.651564 65.465705 
L 171.976544 57.533902 
L 172.301523 61.499803 
L 172.626503 73.397508 
L 172.951482 53.568 
L 173.276462 73.397508 
L 173.601441 53.568 
L 173.926421 69.431607 
L 174.2514 65.465705 
L 174.57638 57.533902 
L 175.226339 57.533902 
L 175.551319 69.431607 
L 176.201278 69.431607 
L 176.851237 61.499803 
L 177.176216 77.36341 
L 177.501196 57.533902 
L 177.826175 69.431607 
L 178.151155 65.465705 
L 178.476134 77.36341 
L 178.801114 61.499803 
L 179.126093 57.533902 
L 179.451073 57.533902 
L 179.776052 73.397508 
L 180.101032 69.431607 
L 180.426011 61.499803 
L 180.750991 69.431607 
L 181.075971 57.533902 
L 181.40095 65.465705 
L 181.72593 65.465705 
L 182.050909 57.533902 
L 182.375889 73.397508 
L 183.025848 57.533902 
L 183.350827 61.499803 
L 184.000786 61.499803 
L 184.325766 57.533902 
L 184.650745 69.431607 
L 184.975725 61.499803 
L 185.300704 77.36341 
L 185.625684 61.499803 
L 185.950663 61.499803 
L 186.275643 65.465705 
L 186.600622 61.499803 
L 186.925602 69.431607 
L 187.250581 69.431607 
L 187.575561 77.36341 
L 187.900541 61.499803 
L 188.22552 81.329311 
L 188.875479 81.329311 
L 189.200459 61.499803 
L 189.525438 65.465705 
L 189.850418 61.499803 
L 190.500377 69.431607 
L 190.825356 69.431607 
L 191.475315 61.499803 
L 191.800295 69.431607 
L 192.125274 61.499803 
L 192.450254 69.431607 
L 192.775233 53.568 
L 193.100213 61.499803 
L 193.425192 61.499803 
L 193.750172 57.533902 
L 194.075152 73.397508 
L 194.400131 69.431607 
L 194.725111 61.499803 
L 195.05009 57.533902 
L 195.37507 61.499803 
L 195.700049 77.36341 
L 196.025029 61.499803 
L 196.350008 65.465705 
L 196.674988 81.329311 
L 196.999967 57.533902 
L 197.649926 73.397508 
L 197.974906 57.533902 
L 198.299885 57.533902 
L 198.624865 73.397508 
L 198.949844 57.533902 
L 199.274824 81.329311 
L 199.599803 65.465705 
L 199.924783 61.499803 
L 200.249762 53.568 
L 200.574742 53.568 
L 200.899722 65.465705 
L 201.224701 61.499803 
L 201.549681 53.568 
L 201.87466 61.499803 
L 202.524619 61.499803 
L 202.849599 65.465705 
L 203.499558 57.533902 
L 204.149517 73.397508 
L 204.799476 73.397508 
L 205.124455 61.499803 
L 205.449435 69.431607 
L 205.774414 65.465705 
L 206.099394 57.533902 
L 206.424373 57.533902 
L 206.749353 69.431607 
L 207.074333 65.465705 
L 207.399312 65.465705 
L 207.724292 61.499803 
L 208.049271 61.499803 
L 208.69923 69.431607 
L 209.02421 57.533902 
L 209.349189 65.465705 
L 209.674169 65.465705 
L 209.999148 61.499803 
L 210.324128 53.568 
L 210.649107 65.465705 
L 210.974087 57.533902 
L 212.274005 57.533902 
L 212.598984 53.568 
L 212.923964 65.465705 
L 213.248943 69.431607 
L 213.573923 85.295213 
L 213.898903 57.533902 
L 214.223882 77.36341 
L 214.548862 65.465705 
L 214.873841 61.499803 
L 215.198821 73.397508 
L 215.5238 69.431607 
L 215.84878 61.499803 
L 216.173759 57.533902 
L 216.498739 61.499803 
L 216.823718 73.397508 
L 217.148698 65.465705 
L 217.473677 65.465705 
L 217.798657 57.533902 
L 218.123636 65.465705 
L 218.448616 57.533902 
L 218.773595 69.431607 
L 219.098575 57.533902 
L 219.423554 65.465705 
L 219.748534 57.533902 
L 220.073514 53.568 
L 220.398493 77.36341 
L 220.723473 57.533902 
L 221.048452 57.533902 
L 221.373432 61.499803 
L 221.698411 57.533902 
L 222.023391 61.499803 
L 222.67335 61.499803 
L 222.998329 53.568 
L 223.323309 61.499803 
L 223.648288 57.533902 
L 223.973268 73.397508 
L 224.298247 61.499803 
L 224.948206 61.499803 
L 225.273186 57.533902 
L 225.598165 65.465705 
L 225.923145 53.568 
L 226.248124 57.533902 
L 226.573104 65.465705 
L 226.898084 61.499803 
L 227.873022 61.499803 
L 228.198002 65.465705 
L 229.17294 53.568 
L 229.822899 61.499803 
L 230.147879 61.499803 
L 230.472858 69.431607 
L 230.797838 61.499803 
L 231.447797 61.499803 
L 231.772776 57.533902 
L 232.097756 61.499803 
L 232.422735 53.568 
L 232.747715 57.533902 
L 233.072695 57.533902 
L 233.397674 65.465705 
L 233.722654 57.533902 
L 234.047633 73.397508 
L 234.372613 53.568 
L 234.697592 69.431607 
L 235.347551 53.568 
L 235.672531 57.533902 
L 235.99751 69.431607 
L 236.32249 61.499803 
L 236.647469 57.533902 
L 236.972449 65.465705 
L 237.947387 65.465705 
L 238.272367 57.533902 
L 238.597346 73.397508 
L 238.922326 57.533902 
L 239.247305 61.499803 
L 239.572285 53.568 
L 239.897265 73.397508 
L 240.222244 57.533902 
L 240.547224 65.465705 
L 240.872203 57.533902 
L 241.197183 61.499803 
L 241.522162 73.397508 
L 241.847142 61.499803 
L 243.797019 61.499803 
L 244.121998 53.568 
L 244.446978 77.36341 
L 244.771957 53.568 
L 245.096937 65.465705 
L 245.421916 69.431607 
L 245.746896 69.431607 
L 246.071876 61.499803 
L 246.396855 69.431607 
L 246.721835 53.568 
L 247.046814 57.533902 
L 247.371794 53.568 
L 247.696773 57.533902 
L 248.021753 53.568 
L 248.346732 69.431607 
L 248.671712 61.499803 
L 248.996691 73.397508 
L 249.321671 65.465705 
L 249.64665 61.499803 
L 249.97163 53.568 
L 250.296609 57.533902 
L 250.621589 69.431607 
L 250.946568 57.533902 
L 251.271548 53.568 
L 251.596527 65.465705 
L 251.921507 57.533902 
L 252.246486 65.465705 
L 252.571466 57.533902 
L 252.896446 65.465705 
L 253.221425 57.533902 
L 253.546405 57.533902 
L 253.871384 61.499803 
L 254.196364 77.36341 
L 254.521343 65.465705 
L 254.846323 69.431607 
L 255.171302 53.568 
L 255.496282 69.431607 
L 255.821261 57.533902 
L 256.146241 65.465705 
L 256.47122 65.465705 
L 256.7962 69.431607 
L 257.121179 53.568 
L 257.446159 61.499803 
L 257.771138 53.568 
L 258.096118 57.533902 
L 258.421097 69.431607 
L 258.746077 57.533902 
L 259.071057 53.568 
L 259.396036 61.499803 
L 260.045995 69.431607 
L 260.695954 61.499803 
L 261.020934 61.499803 
L 261.345913 57.533902 
L 261.670893 61.499803 
L 261.995872 57.533902 
L 262.320852 57.533902 
L 262.645831 61.499803 
L 263.29579 61.499803 
L 263.62077 73.397508 
L 263.945749 65.465705 
L 264.270729 53.568 
L 264.595708 61.499803 
L 264.920688 57.533902 
L 265.245667 57.533902 
L 265.570647 53.568 
L 265.895627 61.499803 
L 266.220606 53.568 
L 266.545586 73.397508 
L 266.870565 65.465705 
L 267.520524 57.533902 
L 268.170483 57.533902 
L 268.495463 65.465705 
L 268.820442 61.499803 
L 269.145422 65.465705 
L 269.795381 57.533902 
L 270.44534 57.533902 
L 270.770319 65.465705 
L 271.095299 57.533902 
L 271.420278 53.568 
L 271.745258 61.499803 
L 272.720197 61.499803 
L 273.045176 57.533902 
L 273.695135 65.465705 
L 274.020115 61.499803 
L 274.345094 53.568 
L 274.670074 61.499803 
L 275.320033 61.499803 
L 275.645012 53.568 
L 275.969992 57.533902 
L 276.294971 69.431607 
L 276.94493 61.499803 
L 277.26991 61.499803 
L 277.594889 53.568 
L 277.919869 61.499803 
L 278.244848 61.499803 
L 278.569828 53.568 
L 278.894808 61.499803 
L 279.219787 53.568 
L 279.544767 53.568 
L 279.869746 61.499803 
L 280.194726 57.533902 
L 280.519705 57.533902 
L 280.844685 65.465705 
L 281.169664 65.465705 
L 281.494644 53.568 
L 281.819623 53.568 
L 282.144603 57.533902 
L 282.469582 57.533902 
L 282.794562 65.465705 
L 283.119541 65.465705 
L 283.444521 73.397508 
L 283.7695 57.533902 
L 284.09448 57.533902 
L 284.419459 53.568 
L 285.069419 61.499803 
L 285.394398 53.568 
L 285.719378 57.533902 
L 286.044357 53.568 
L 286.369337 73.397508 
L 286.694316 57.533902 
L 287.019296 57.533902 
L 287.344275 61.499803 
L 287.669255 61.499803 
L 287.994234 57.533902 
L 288.319214 57.533902 
L 288.644193 61.499803 
L 288.969173 57.533902 
L 289.294152 61.499803 
L 289.619132 53.568 
L 289.944111 57.533902 
L 290.269091 57.533902 
L 290.59407 53.568 
L 290.91905 61.499803 
L 291.244029 53.568 
L 291.569009 73.397508 
L 291.893989 57.533902 
L 292.218968 61.499803 
L 292.543948 57.533902 
L 292.868927 65.465705 
L 293.193907 65.465705 
L 293.843866 57.533902 
L 294.168845 61.499803 
L 294.493825 57.533902 
L 294.818804 61.499803 
L 295.143784 57.533902 
L 295.468763 61.499803 
L 296.443702 61.499803 
L 296.768681 65.465705 
L 297.093661 53.568 
L 297.41864 53.568 
L 297.74362 61.499803 
L 298.0686 61.499803 
L 298.393579 53.568 
L 298.718559 57.533902 
L 299.043538 57.533902 
L 299.693497 65.465705 
L 300.018477 61.499803 
L 300.343456 53.568 
L 300.668436 69.431607 
L 300.993415 57.533902 
L 301.318395 53.568 
L 301.643374 69.431607 
L 301.968354 57.533902 
L 302.293333 53.568 
L 302.618313 65.465705 
L 302.943292 53.568 
L 303.268272 65.465705 
L 303.593251 53.568 
L 303.918231 65.465705 
L 304.24321 65.465705 
L 304.56819 57.533902 
L 305.868108 57.533902 
L 306.193088 53.568 
L 306.518067 57.533902 
L 307.168026 57.533902 
L 307.493006 65.465705 
L 307.817985 65.465705 
L 308.142965 57.533902 
L 308.467944 61.499803 
L 308.792924 53.568 
L 309.117903 77.36341 
L 309.442883 61.499803 
L 310.092842 61.499803 
L 310.417821 65.465705 
L 310.742801 61.499803 
L 311.067781 65.465705 
L 311.71774 57.533902 
L 312.042719 57.533902 
L 312.367699 61.499803 
L 312.692678 57.533902 
L 313.017658 61.499803 
L 313.342637 53.568 
L 313.667617 61.499803 
L 313.992596 57.533902 
L 314.317576 65.465705 
L 314.642555 57.533902 
L 314.967535 53.568 
L 315.617494 69.431607 
L 315.942473 57.533902 
L 316.267453 57.533902 
L 316.592432 65.465705 
L 316.917412 53.568 
L 317.242391 61.499803 
L 317.567371 53.568 
L 317.892351 61.499803 
L 318.21733 61.499803 
L 318.54231 57.533902 
L 318.867289 69.431607 
L 319.192269 61.499803 
L 319.517248 57.533902 
L 319.842228 57.533902 
L 320.167207 53.568 
L 320.817166 69.431607 
L 321.142146 65.465705 
L 321.467125 53.568 
L 321.792105 69.431607 
L 322.117084 53.568 
L 322.442064 57.533902 
L 322.767043 53.568 
L 323.092023 57.533902 
L 323.741982 57.533902 
L 324.066962 65.465705 
L 324.391941 61.499803 
L 324.716921 53.568 
L 325.0419 65.465705 
L 325.36688 53.568 
L 325.691859 53.568 
L 326.016839 57.533902 
L 326.666798 57.533902 
L 326.991777 69.431607 
L 327.316757 73.397508 
L 327.641736 57.533902 
L 329.916593 57.533902 
L 330.241572 65.465705 
L 330.566552 61.499803 
L 330.891532 69.431607 
L 331.216511 61.499803 
L 331.541491 57.533902 
L 331.86647 65.465705 
L 332.19145 53.568 
L 332.841409 53.568 
L 333.166388 57.533902 
L 333.491368 53.568 
L 333.816347 61.499803 
L 334.141327 57.533902 
L 334.466306 65.465705 
L 334.791286 57.533902 
L 335.441245 65.465705 
L 335.766224 61.499803 
L 336.091204 53.568 
L 336.416183 61.499803 
L 337.066143 53.568 
L 337.391122 61.499803 
L 337.716102 61.499803 
L 338.366061 53.568 
L 338.69104 53.568 
L 339.01602 57.533902 
L 340.315938 57.533902 
L 340.640917 53.568 
L 341.615856 53.568 
L 341.940835 57.533902 
L 342.265815 57.533902 
L 342.590794 61.499803 
L 342.915774 53.568 
L 343.240753 57.533902 
L 343.565733 57.533902 
L 343.890713 65.465705 
L 344.215692 53.568 
L 344.540672 69.431607 
L 344.865651 57.533902 
L 345.190631 61.499803 
L 345.51561 57.533902 
L 345.84059 57.533902 
L 346.165569 61.499803 
L 346.490549 57.533902 
L 346.815528 65.465705 
L 347.140508 65.465705 
L 347.465487 53.568 
L 348.115446 53.568 
L 348.440426 57.533902 
L 348.765405 57.533902 
L 349.090385 61.499803 
L 349.415364 53.568 
L 349.740344 61.499803 
L 350.390303 53.568 
L 350.715283 61.499803 
L 351.040262 65.465705 
L 351.365242 57.533902 
L 351.690221 69.431607 
L 352.34018 53.568 
L 352.990139 61.499803 
L 353.315119 57.533902 
L 353.640098 61.499803 
L 353.965078 57.533902 
L 354.290057 57.533902 
L 354.615037 65.465705 
L 354.940016 69.431607 
L 355.264996 57.533902 
L 355.589975 53.568 
L 355.914955 53.568 
L 356.239934 77.36341 
L 356.564914 73.397508 
L 356.889894 57.533902 
L 357.214873 53.568 
L 357.539853 65.465705 
L 357.864832 53.568 
L 358.189812 69.431607 
L 358.514791 53.568 
L 359.16475 61.499803 
L 359.48973 61.499803 
L 359.814709 65.465705 
L 360.139689 65.465705 
L 360.464668 61.499803 
L 360.789648 61.499803 
L 361.114627 57.533902 
L 361.439607 61.499803 
L 361.764586 69.431607 
L 362.089566 69.431607 
L 362.414545 57.533902 
L 362.739525 65.465705 
L 363.064505 57.533902 
L 363.389484 61.499803 
L 363.714464 53.568 
L 364.039443 65.465705 
L 364.364423 53.568 
L 364.689402 65.465705 
L 365.014382 65.465705 
L 365.339361 53.568 
L 365.664341 69.431607 
L 365.98932 57.533902 
L 366.3143 57.533902 
L 366.639279 53.568 
L 366.964259 57.533902 
L 367.289238 57.533902 
L 367.614218 53.568 
L 368.264177 61.499803 
L 368.589156 53.568 
L 368.914136 53.568 
L 369.239115 61.499803 
L 369.564095 61.499803 
L 369.889075 53.568 
L 370.214054 65.465705 
L 370.539034 61.499803 
L 370.864013 61.499803 
L 371.188993 57.533902 
L 372.81389 57.533902 
L 373.13887 61.499803 
L 373.463849 57.533902 
L 373.788829 57.533902 
L 374.113808 61.499803 
L 374.438788 57.533902 
L 374.763767 65.465705 
L 375.088747 57.533902 
L 375.413726 65.465705 
L 376.063686 57.533902 
L 376.388665 57.533902 
L 376.713645 65.465705 
L 377.038624 61.499803 
L 377.363604 53.568 
L 377.688583 53.568 
L 378.013563 57.533902 
L 378.338542 53.568 
L 378.988501 61.499803 
L 379.313481 53.568 
L 379.96344 61.499803 
L 380.288419 57.533902 
L 380.613399 57.533902 
L 380.938378 65.465705 
L 381.263358 65.465705 
L 381.588337 61.499803 
L 381.913317 69.431607 
L 382.238296 57.533902 
L 382.563276 53.568 
L 382.888256 65.465705 
L 383.213235 61.499803 
L 384.188174 61.499803 
L 384.513153 57.533902 
L 384.838133 65.465705 
L 385.163112 57.533902 
L 385.488092 53.568 
L 385.813071 65.465705 
L 386.138051 61.499803 
L 386.46303 61.499803 
L 386.78801 53.568 
L 387.437969 69.431607 
L 387.762948 57.533902 
L 388.087928 57.533902 
L 388.412907 61.499803 
L 388.737887 57.533902 
L 389.387846 65.465705 
L 389.712826 57.533902 
L 390.037805 57.533902 
L 390.362785 61.499803 
L 391.012744 61.499803 
L 391.337723 57.533902 
L 391.662703 57.533902 
L 391.987682 61.499803 
L 392.312662 53.568 
L 392.637641 57.533902 
L 393.61258 57.533902 
L 393.937559 65.465705 
L 394.262539 61.499803 
L 394.587518 65.465705 
L 394.912498 57.533902 
L 395.237477 65.465705 
L 395.562457 65.465705 
L 395.887437 57.533902 
L 396.212416 53.568 
L 396.537396 65.465705 
L 396.862375 65.465705 
L 397.187355 57.533902 
L 397.512334 57.533902 
L 397.837314 53.568 
L 398.162293 61.499803 
L 398.487273 61.499803 
L 398.487273 61.499803 
" style="fill:none;stroke:#1f77b4;stroke-linecap:square;stroke-width:1.5;"/>
   </g>
   <g id="patch_3">
    <path d="M 57.6 307.584 
L 57.6 41.472 
" style="fill:none;stroke:#000000;stroke-linecap:square;stroke-linejoin:miter;stroke-width:0.8;"/>
   </g>
   <g id="patch_4">
    <path d="M 414.72 307.584 
L 414.72 41.472 
" style="fill:none;stroke:#000000;stroke-linecap:square;stroke-linejoin:miter;stroke-width:0.8;"/>
   </g>
   <g id="patch_5">
    <path d="M 57.6 307.584 
L 414.72 307.584 
" style="fill:none;stroke:#000000;stroke-linecap:square;stroke-linejoin:miter;stroke-width:0.8;"/>
   </g>
   <g id="patch_6">
    <path d="M 57.6 41.472 
L 414.72 41.472 
" style="fill:none;stroke:#000000;stroke-linecap:square;stroke-linejoin:miter;stroke-width:0.8;"/>
   </g>
  </g>
 </g>
 <defs>
  <clipPath id="p8cf1a9a298">
   <rect height="266.112" width="357.12" x="57.6" y="41.472"/>
  </clipPath>
 </defs>
</svg>
